<svg width="240" height="240" viewBox="0 0 240 240" fill="none" xmlns="http://www.w3.org/2000/svg">
<path d="M120 70.5C121.829 70.5 123.671 71.7378 125.431 74.2187C127.181 76.6867 128.779 80.2901 130.128 84.7881C132.825 93.7779 134.5 106.228 134.5 120C134.5 133.772 132.825 146.222 130.128 155.212C128.779 159.71 127.181 163.313 125.431 165.781C123.671 168.262 121.829 169.5 120 169.5C118.171 169.5 116.329 168.262 114.569 165.781C112.819 163.313 111.221 159.71 109.872 155.212C107.175 146.222 105.5 133.772 105.5 120C105.5 106.228 107.175 93.7779 109.872 84.7881C111.221 80.2901 112.819 76.6867 114.569 74.2187C116.329 71.7378 118.171 70.5 120 70.5Z" stroke="white"/>
<path d="M169.5 120C169.5 121.829 168.262 123.671 165.781 125.431C163.313 127.181 159.71 128.779 155.212 130.128C146.222 132.825 133.772 134.5 120 134.5C106.228 134.5 93.7779 132.825 84.7881 130.128C80.2901 128.779 76.6867 127.181 74.2187 125.431C71.7377 123.671 70.5 121.829 70.5 120C70.5 118.171 71.7378 116.329 74.2187 114.569C76.6867 112.819 80.2901 111.221 84.7881 109.872C93.7779 107.175 106.228 105.5 120 105.5C133.772 105.5 146.222 107.175 155.212 109.872C159.71 111.221 163.313 112.819 165.781 114.569C168.262 116.329 169.5 118.171 169.5 120Z" stroke="white"/>
</svg>
