<?xml version="1.0" encoding="UTF-8"?>
<svg id="Layer_1" xmlns="http://www.w3.org/2000/svg" version="1.1" viewBox="0 0 202.0335404 32.7559817">
  <!-- Generator: Adobe Illustrator 30.5.1, SVG Export Plug-In . SVG Version: 2.1.4 Build 3)  -->
  <defs>
    <style>
      .st0 {
        fill: #fff;
      }
    </style>
  </defs>
  <path class="st0" d="M15.7480222,0C7.0516162,0,0,7.0516162,0,15.7480108c0,8.698639,7.0516162,15.7479459,15.7480222,15.7479459,8.6963177,0,15.7479459-7.0493069,15.7479459-15.7479459C31.4959681,7.0516162,24.4466497,0,15.7480222,0ZM21.2580549,25.2128984h-3.2894917V8.8707171h-1.4681683c-2.6931095,0-4.106184,1.360301-4.106184,3.3721104,0,2.2847738.9795122,3.3445854,2.9913216,4.7049075l1.6585255,1.1147862-4.7851849,7.1526871h-3.5625315l4.2965842-6.3910561c-2.4728861-1.7686043-3.8607235-3.4821892-3.8607235-6.390915,0-3.6428089,2.527937-6.1179934,7.3406582-6.1179934h4.7851963s0,18.8976547-.0000019,18.8976547ZM76.694985,17.6115819c-.7074509,0-1.3193436-.029911-1.8942948.1298428-.5774307.1598167-1.0703278.3949909-1.4811554.7075996-.4108276.3127823-.7301941.7097569-.9584274,1.1935883-.2282486.4838314-.342453,1.0497284-.342453,1.697855,0,.8877335.2122574,1.6180992.6412125,2.1930485.4268112.5751228,1.0864945.969799,1.976532,1.1866608l-3.455391,5.0162926h2.4124146l3.1310501-4.7102528h1.8987351v4.7102528h2.0882569l-.0293121-12.1248895s-3.987175,0-3.9871674.0000019ZM78.6232077,23.302973h-2.104065c-.7530975,0-1.3351517-.1548843-1.745987-.4698029-.4108276-.3149185-.6159744-.8195324-.6159744-1.552208,0-.7324905.2326813-1.2483025.6935959-1.5518494.4609222-.3033733,1.0793915-.4539871,1.8554001-.4539871h1.917038s0,4.0278473-.0000076,4.0278473ZM89.2881171,6.2534514c-.3538132-.3811135-.7690888-.6666641-1.2415466-.8537898-.4722824-.1871147-.9721069-.2804446-1.4969711-.2804556-.7072754,0-1.3053131.1572914-1.7960739.4699011-.4905777.312664-.8832855.7373471-1.1800919,1.2713723l-.1367722-1.5701923h-1.8141937v11.8763276h1.9852371v-4.5208283c.2968063.5134602.6895142.9196596,1.1733475,1.2208967.4836578.3012047,1.0634003.451829,1.7365723.451829l-.0023117-.0046721c.5248642,0,1.0268097-.0936546,1.5060272-.2807589.4794006-.1871471.8994598-.4723835,1.2577133-.8534975.3605728-.3810921.6435165-.8580399.8557663-1.4330874.2120819-.5728035.3170548-1.2642937.3170548-2.0379257,0-.773654-.1071091-1.446909-.3170548-2.0220218-.2099381-.575069-.4930649-1.0519734-.8467026-1.4330974ZM87.7568671,11.9518567c-.438179.4860868-1.010994.7279158-1.7184525.7279158v.0024824c-.3424454,0-.6664276-.0594845-.9676666-.1804256-.301239-.1186647-.5616226-.3036013-.7783127-.5478039-.2168732-.2464476-.3877487-.5545797-.5133209-.9242239-.1277084-.3719854-.1893463-.8193703-.1893463-1.3099985,0-.4906178.0639496-.9196701.1893463-1.2916231.1255722-.371953.301239-.6822538.5225449-.9332647.221489-.2510223.4815369-.4358931.7781525-.5568457.2966156-.1209416.6207733-.1804042.9744034-.1804261.6960831,0,1.2644653.2441492,1.7026444.7347674.4404984.4906721.6596832,1.2210703.6596832,2.2252026s-.221489,1.750413-.6596756,2.2342434ZM189.4901443,25.1448729l3.4902039,4.5894738h-2.3445435l-2.7708588-3.5990773h-.7673035v3.601202h-1.9857788v-8.8569279h1.9857788v3.6514702h.8365784l2.8241272-3.6514702h2.0870209l-3.3552094,4.2653294h-.0000153ZM181.220262,20.8795435h1.9520264v8.8569279h-1.9680176v-6.1432744l-4.0713654,6.1432744h-1.9852448v-8.8569279h1.9671173v6.1777382l4.1054688-6.1777382h.0000153ZM88.4593513,20.8795435h1.9855957v8.8569279h-1.9855957v-3.7379704h-3.7473831v3.7379704h-1.9852371v-8.8569279h1.9852371v3.5143547h3.7473831v-3.5143547ZM103.2092827,14.147442h-1.9855881V5.2902871h1.9855881v3.5146151h3.7470322v-3.5146151h1.9855957v8.8571549h-1.9855957v-3.7383614h-3.7470322v3.7383614ZM202.0335404,20.8795435v8.8569279h-1.9662171v-6.1432744l-4.0727997,6.1432744h-1.9839783v-8.8569279h1.9662171v6.1777382l4.1065369-6.1777382h1.9502411ZM72.6214987,13.0131751c.3879089.43818.8490067.7644501,1.3852387.9812689.5364075.2167978,1.1342774.324069,1.7619782.324069.6275177,0,1.2117004-.1006041,1.7548676-.2991447.5431519-.1985416,1.0086823-.4927645,1.4035339-.8784313.3948517-.3856773.7053223-.865119.9335556-1.4333906.2282486-.5682173.3420944-1.2231741.3420944-1.9625054l.0023117-.0046721c0-.7051601-.1024933-1.3304882-.307991-1.8758965-.2053299-.5476847-.4838333-1.0086422-.837471-1.3829155-.3538055-.3765497-.7690811-.6642904-1.2415466-.8628311-.4722824-.1985631-.9722824-.2988524-1.4973221-.2988524-1.6315994.0000434-2.7315827.6437249-3.3021012,1.9285512.0685577-.7507792.2053299-1.3875551.4108276-1.9101648.2053299-.5225987.5248642-.9313569.9584351-1.2280302.3765488-.2396066.80336-.3854284,1.2825699-.4356437.4792099-.0501935,1.0088806-.1049728,1.590744-.1620288.3172302-.0228202.5980377-.0502045.8376465-.0775995.2396088-.0273733.449379-.059571.6319733-.093785.1825867-.034225.3422699-.0752904.4792099-.1277606.13694-.0524809.2671356-.1164427.3925324-.1963189v-1.7571557c-.2509689.1369321-.5523911.2486697-.9060211.3331099-.3538132.0867059-.8786774.1461902-1.5745926.1804152-.6275177.022831-1.2415466.0797894-1.8394089.1710811-.5978699.0912807-1.159317.3013351-1.6843567.6322551-.444931.2966735-.8099365.6458714-1.0951843,1.0498052-.2852554.4039445-.5090561.87184-.6756592,1.4081636-.1664276.5362477-.2829514,1.1386361-.3515091,1.8094959-.0683823.6709576-.1026611,1.4104834-.1026611,2.2183514,0,.8877544.1119003,1.6568337.3333893,2.311822.2213058.6549883.5268173,1.2005701.914917,1.6387386ZM74.0866629,7.5999299c.4380035-.4678302.9880905-.7029815,1.6841736-.7030034.6960831,0,1.2710343.2374387,1.7207718.7098546.4495392.4723949.6754761,1.2002564.6754761,2.1815567,0,.9813442-.2259369,1.707201-.6754761,2.1818934-.4518585.4723291-1.0246887.7095404-1.7207718.7095404v.0024824c-.673172-.0000219-1.2323151-.2374601-1.6774216-.7098551-.444931-.472373-.6662521-1.2460051-.6662521-2.2158365,0-.969842.2213211-1.6887922.6595001-2.1566324ZM96.2463081,14.3185121c.4222031,0,.7987518-.0273952,1.1296463-.0844402.3309021-.0570555.6207733-.125473.8717499-.2053604.251152-.0798655.4678421-.1690102.6504364-.2648659.1802826-.0958452.3353424-.1849899.4607391-.2648659l-.0042572-.0021896v-1.6384363c-.3309097.1939983-.7351685.3786306-1.2074509.5543633-.4724579.1756992-1.0635758.2648659-1.7708511.2648659-.9699707-.0000219-1.6818619-.2009048-2.1383438-.6048279-.4564819-.4039555-.7234421-1.0087938-.8033676-1.8166723h6.1438141c.1253967-.8511992.1205978-1.5975552-.0094223-2.2342444-.1300125-.6366024-.3673096-1.1705952-.7095871-1.6041575-.3422699-.4312964-.7806244-.7554083-1.3099365-.9722276-.5294724-.2167974-1.1481247-.3240685-1.7870102-.3240685-.6390762,0-1.2255707.1047778-1.7619705.3147235-.5362396.2099676-.9971542.5114546-1.3850708.9039726s-.6893311.8739109-.9062042,1.4421287c-.2166977.5682612-.3239746,1.2119427-.3239746,1.9285507,0,1.4560051.4039001,2.5880165,1.2070847,3.3959179.8056793.8078785,2.0221863,1.211834,3.6539612,1.211834h.0000153ZM94.2928627,7.2185126c.3992844-.353621.8898544-.5293961,1.4717331-.529418l-.0021286.0024934c.6161575,0,1.0953674.1687393,1.4376373.5110426.3422699.3400264.502121.8694873.4792099,1.5860744h-4.173851c.1253967-.6937561.3879242-1.2164741.7873993-1.5701923ZM116.0986871,25.1448729l3.4894867,4.5894738h-2.3436737l-2.7713776-3.5990773h-.7685471v3.601202h-1.9852371v-8.8569279h1.9852371v3.6514702h.8376465l2.8232346-3.6514702h2.088089s-3.3548508,4.2653294-3.3548584,4.2653294ZM162.2872174,22.0706484c-.3538208-.3765488-.7690735-.6641064-1.2415466-.8625069-.47229-.1985855-.9720917-.2992859-1.4969635-.2992859-1.6316071,0-2.7317658.6436806-3.3022766,1.9285736.0683746-.7507896.2053223-1.3875542.4106445-1.910099.2053223-.5225563.5248718-.9310761.9584198-1.227705.3765564-.2396069.8033753-.3857861,1.2825775-.4360447.4794006-.0500965,1.0088654-.1049728,1.590744-.1619968.3172302-.0227337.5980377-.0502586.8376465-.07761s.4497376-.0591488.6323242-.0934277.3422699-.0753117.4792175-.1277065c.1369476-.052578.2667847-.116518.3923645-.1964493l-.02948-1.6476193c-.2509766.1368999-.5520477.2489834-.9058533.3334236-.3536377.0867062-.8788605.1458759-1.5747681.1801014-.6277008.0228195-1.2415466.0801029-1.8395844.1713848-.5978699.0913124-1.129837.1913109-1.6546936.5222187-.444931.2966194-.8101196.6458168-1.0953827,1.0497189-.2852478.4039021-.5088806.8719273-.6754761,1.4081535-.1666107.5364094-.2831268,1.138897-.3515015,1.8099289-.0685577.6708698-.102478,1.4104729-.102478,2.2182751,0,.8877335.1117096,1.6568222.3330383,2.3118763.2213135.6548805.5271606,1.2001686.9152527,1.6383495.3879242.4381809.8488312.7644711,1.3850708.9813442.5362244.2166882,1.1342621.3239708,1.7617951.3239708.6275177,0,1.2118836-.1003551,1.7550354-.2987556.5431519-.1985741,1.0088654-.4930687,1.4037171-.8788548.3948364-.385601.7051392-.8648148.933197-1.4330216.228241-.5681953.3426209-1.2234345.3426209-1.9628525l.0021362-.0042706c0-.7051392-.1028442-1.3305321-.3081818-1.8759937-.2055054-.5475979-.4840088-1.0088806-.8376465-1.3831215l.0000305.0000019ZM160.7216962,27.5592272c-.4518585.4724712-1.0246735.7099419-1.7207642.7099419v.0021362c-.6731873,0-1.2323303-.2374821-1.6774292-.7099419-.444931-.4722862-.6664276-1.2458096-.6664276-2.2157822,0-.9699841.2214966-1.6888027.6596832-2.1566448s.9880829-.7030144,1.6841736-.7030144,1.2712097.2374821,1.7207642.7099419c.4495544.4722862.6754761,1.2003422.6754761,2.1815033,0,.9813442-.2259216,1.7072659-.6754761,2.18186ZM109.3523873,22.0067083c-.3422699-.4312534-.7806244-.7554092-1.3099365-.9722824-.5294724-.2166882-1.147934-.3239708-1.7868347-.3239708-.6388931,0-1.2255554.1049728-1.7617874.3149185-.5364075.2101192-.9975052.5111828-1.3854294.9037132-.3879089.39254-.6889725.8742352-.9058456,1.442442-.2168732.5683804-.3241577,1.2118874-.3241577,1.9285736,0,1.4559403.4039001,2.5877247,1.2072678,3.3955269.8055039.8079872,2.0218277,1.2118874,3.6536103,1.2118874.4222031,0,.7989273-.0273514,1.1298294-.0843639s.6205902-.1255817.8715668-.205328c.251152-.0799294.4680252-.1687393.6506195-.2646484.180275-.0957356.3353424-.1849041.4609146-.2648335l-.0044479-.0021248v-1.6388912c-.3309021.1941395-.7349854.3790436-1.2074432.5547104-.4722824.1756554-1.0634003.264822-1.7708511.264822-.9697952,0-1.6818771-.200882-2.1381684-.604784-.4564819-.4039116-.7234421-1.0086956-.8033676-1.8166828h6.1432724c.1255798-.8511448.1211395-1.5975018-.0090485-2.2342549-.1300125-.6365814-.3675003-1.170866-.7097626-1.6044293ZM103.9986275,24.378092c.1255722-.6937771.3877411-1.216507.7872086-1.5701485.3992844-.353817.8900452-.5294724,1.4719162-.5294724l-.0021362.0021248c.6161575,0,1.0953827.1690979,1.4378281.5113678.3422699.3401356.5019455.8696175.4792099,1.5861282h-4.1740265ZM153.1814434,29.0519297c-.0069275-.1369438-.013855-.2715759-.0184784-.4017658-.0067444-.1300163-.0090485-.2463608-.0090485-.3490238v-4.6239262c0-1.0358753-.3126068-1.7889729-.9332123-2.2612591-.6207733-.47015-1.5017548-.7076321-2.6427765-.7076321-.6847229,0-1.3170471.0841904-1.8989258.2554131-.5818787.1689129-1.0497131.3516922-1.4035339.5456467v1.6546879c.388092-.2145634.8376465-.4062099,1.3443909-.5706787.5065765-.1643047,1.0520325-.2463608,1.6339111-.2463608.6847076,0,1.1754761.1117153,1.4720917.3330345.2966309.2214909.444931.6232567.444931,1.2028256v.5452881h-1.3511353c-1.3099365,0-2.3253784.2419167-3.0443726.7257481-.7188263.4838314-1.0772553,1.2074547-1.0772553,2.1751175,0,.4220161.0710449.7939472.2147369,1.1179295.1438751.3241444.3353424.5934124.5818787.8102856.2463532.2166996.5341034.3788586.8650055.4861412.3309021.1071091.6891632.1619968,1.0772553.1619968.4106598,0,.7690888-.0500965,1.0770722-.1527596.3081818-.102663.5751343-.2372971.7966309-.4015923.2213135-.1642952.4106445-.349371.5635834-.5546989.1520386-.2042656.2744141-.4065685.3655396-.6108341l.0177612.1131477c.0113678.2282352.02948.4838314.0591431.7690888.0275269.2852478.0596771.5067387.0937805.6665993h1.830185c-.0113678-.0799294-.0225525-.1804581-.0339203-.2991123-.0113678-.1186428-.0207825-.2465343-.0252228-.3833027l-.0000153-.0000038ZM151.1731121,26.3246061c0,.0913029-.0340881.2488422-.102478.4770889-.0685577.2282352-.1896973.4587784-.3609161.6914578-.1712341.2326908-.3969879.4381905-.6753082.6138573-.2783356.1758404-.6300049.2649956-1.0522156.2649956-.4335785,0-.7621613-.1120739-.9834747-.3335648-.2213135-.2213078-.3333893-.5246811-.3333893-.9126015,0-.4427986.1825867-.7875519.5477753-1.0317764s.9403076-.3673134,1.7275238-.3673134h1.2324829v.5978565ZM172.518205,21.842415c-.3536377-.3809948-.7690888-.6662407-1.2413788-.8534546-.4724579-.1870384-.9724579-.2806397-1.4973145-.2806397-.7074432,0-1.3054962.1575508-1.7960816.4701614-.4905701.3125992-.8831177.7371082-1.1797333,1.2710266l-.1371307-1.5701389h-1.8141937v11.8766118h1.9855957v-4.5210877c.2966156.513319.6889801.919529,1.1728058,1.220768.4838257.3012486,1.0637512.452219,1.7369385.452219l-.0024872-.0046177c.5248718,0,1.0271759-.0937843,1.5063782-.2808132.4792175-.187212.8989258-.4724712,1.2573547-.8534546.3605652-.3811684.643692-.8580723.8559418-1.4332066.2122498-.5728149.3172302-1.2644558.3172302-2.0381642,0-.7735233-.1072845-1.4468765-.3172302-2.0220108-.2099457-.5751228-.4928894-1.0520268-.8467102-1.4331951l.0000153-.0000038ZM170.9866041,27.5411131c-.4380035.4861412-1.0108185.7278824-1.7180939.728056v.0021362c-.3422699,0-.6666107-.0591488-.9678497-.1801109-.301239-.1186428-.561264-.3037205-.7781372-.5477715-.2167053-.2465343-.3879242-.5545254-.5134888-.9243202-.1278839-.3719311-.1895142-.8193588-.1895142-1.3099346,0-.4905853.0639343-.919714.1895142-1.2916451.1255646-.3719311.301239-.682579.5225372-.9335575.2213135-.2509785.4817047-.4358711.7783203-.5568352.2967987-.1209526.6207733-.1801014.974411-.1801014.6960907,0,1.2642822.244051,1.7022858.7348003.4404907.4905853.659668,1.2209511.659668,2.2252026,0,1.0040779-.2214966,1.7504349-.659668,2.2340813h.0000153ZM125.889535,28.0750296c.4150925-.1323242.800705-.2989292,1.1545181-.5042553v1.627161c-.2968063.1916466-.6664276.3584347-1.1113587.4998226-.444931.1415615-.9927063.2122555-1.6429672.2122555l-.0047913-.0024929c-.7188187,0-1.3623428-.1047878-1.9328461-.3147354s-1.0545197-.5111828-1.4539795-.9035492c-.399292-.3925285-.7074585-.8742352-.9241486-1.4424324-.2168732-.5683804-.3241577-1.216507-.3241577-1.9445629,0-.7278824.1072845-1.3602028.3241577-1.9285832.2166901-.5680218.5248566-1.0495453.9241486-1.4420738.3994598-.39254.8900452-.6939621,1.4720917-.9038963.5818787-.2099457,1.2323151-.314745,1.9513168-.314745.6161575,0,1.1548767.0683842,1.6180954.205328.4609222.1369438.8305435.307991,1.1021271.5110092v1.6386967c-.3536453-.2280617-.7394257-.4039021-1.1547012-.5292988-.4177551-.1255703-.8992767-.1873856-1.4447403-.1873856-1.8369217.0001736-2.7545014.9882717-2.7545014,2.9600029,0,1.9717407.9015884,2.9600144,2.7044144,2.9600144.5818787,0,1.079567-.0662498,1.4973221-.1962795ZM143.4731914,20.1809732c-.486145-.3879223-1.05896-.6824055-1.7207794-.8877335-.6618042-.205328-1.3738709-.3197098-2.1385193-.3424549l-.0292969-1.4762993h-2.0882569l.02948,1.4762993c-.7758484.0227451-1.4925232.1392517-2.147583.3493824-.657196.2099457-1.2278748.5110092-1.7117157.9035397-.4859619.39254-.8646393.8763714-1.1385346,1.4514942-.27388.5751343-.4106598,1.2438583-.4106598,2.0061951,0,.7621632.1367645,1.4310703.4106598,2.0060196.2737122.5751343.6548767,1.0564728,1.1385346,1.4422588.486145.3879223,1.0568237.6822319,1.7117157.887743.6550598.205328,1.3717346.3195267,2.147583.3424435v1.5697918h2.0880737v-1.5697918c.7646484-.0229187,1.4767151-.1394253,2.1385193-.349371s1.2369385-.5111828,1.7207794-.9035492c.486145-.3925285.8648224-.876545,1.1387024-1.4514942.2737122-.5751228.4110107-1.2438583.4110107-2.0061932,0-.7621632-.1372986-1.4307137-.4110107-2.0058479-.27388-.5751228-.6548767-1.0545101-1.1387024-1.4424324ZM137.5279551,26.7306425c-.4676666-.0204239-.9012299-.08881-1.3005066-.2028446-.3994598-.1140251-.7463532-.2898655-1.0362396-.5271626-.2920074-.2372971-.5227356-.5500908-.6939545-.9358769-.1687469-.385601-.2554169-.8555794-.2554169-1.4124127v-.0024929c0-.5568237.0843658-1.0269852.2554169-1.4125862.1712189-.3856125.4042664-.6983967.6939545-.9356937.2921906-.2372971.6367645-.4131489,1.0362396-.5273476.3992767-.1117268.83284-.1802845,1.3005066-.2030182,0,0,0,6.1594391,0,6.1594353ZM142.6334087,25.0738203c-.1666107.3811684-.3948517.6916428-.6845398.9289398-.2921906.2372971-.6371155.4131489-1.0364075.5273476-.3994598.1117268-.83284.1802845-1.300705.2030182v-6.1436329c.4678497.0250435.9012451.0913029,1.300705.205328.399292.1142101.7465363.2898769,1.0364075.5273476.2920074.2372971.5179443.5500813.6845398.9356937s.2486725.8557625.2486725,1.4125977c0,.5566502-.0843811,1.0246754-.2486725,1.4033604ZM100.0047005,20.8795435h-6.501709c-.0341034,1.0246868-.0753098,1.9330177-.1186523,2.7294579-.045639.796442-.1140213,1.4927025-.2053146,2.0905686-.091301.5978565-.2145615,1.0951958-.3675003,1.4923439-.1527481.3969746-.3628693.7118931-.6253891.9378281h-.7530975v3.6196747h1.7754669v.0023098l.123085-2.0152569h6.125702l.123085,2.0152569h1.7596588v-3.6195011h-1.3353348s0-7.2526837,0-7.2526818ZM98.0215996,28.1322272h-3.72892c.2966309-.5339165.5111847-1.2598496.6411972-2.1749325h-.0024796c.1302032-.9150848.2262802-2.0722695.2833099-3.4734955h2.8068924v5.648428ZM111.8289269,14.147442h6.1253357l.1232758,2.0151711h1.7594834v-3.6196423h-1.3349838v-7.2526832h-6.5020676c-.0342789,1.0246434-.0753021,1.9329095-.1186447,2.7293725-.0456543.7964735-.1140366,1.4926472-.2053299,2.09058-.0912933.5979109-.2145615,1.0955105-.3675003,1.4926148-.1529236.3970499-.3628693.7120123-.6253891.9379263h-.752739v3.6193486h1.775116v.0024834s.1234436-2.0151701.1234436-2.0151711ZM113.4287271,10.3682433c.1300125-.9151173.2259369-2.0722799.2829514-3.473495h2.8068924v5.6482225h-3.7289048c.2966156-.5339928.5111847-1.2596531.6411972-2.1747275h-.0021362ZM51.2062496,1.5748h12.4156877v28.3464h-12.4156877v-2.4832821c5.6956826-.8486614,10.0638505-5.7599812,10.0638505-11.6910554,0-5.9310418-4.3681679-10.8424474-10.0638505-11.6910554V1.5748ZM35.275677,1.5748h12.3876191v2.4856243c-5.6816445.8601971-10.0359574,5.7646871-10.0359574,11.6864382,0,5.9216633,4.3543129,10.8262311,10.0359574,11.6864377v2.4878998h-12.3876191V1.5748Z"/>
</svg>